<?xml version="1.0" encoding="utf-8"?>
<!-- Generator: Adobe Illustrator 21.1.0, SVG Export Plug-In . SVG Version: 6.00 Build 0)  -->
<svg version="1.1" id="Layer_1" xmlns="http://www.w3.org/2000/svg" xmlns:xlink="http://www.w3.org/1999/xlink" x="0px" y="0px"
	 viewBox="0 0 1500 1000" style="enable-background:new 0 0 1500 1000;" xml:space="preserve">
<g>
	<path d="M442.9,428.2h19.6v143.5h-19.6V428.2z"/>
	<path d="M493.6,428.2h27.8l41.3,121.3l41-121.3h27.6v143.5h-18.6V487c0-2.9,0.1-7.8,0.2-14.6c0.1-6.8,0.2-14,0.2-21.8l-41,121
		h-19.3l-41.3-121v4.4c0,3.5,0.1,8.9,0.3,16.1c0.2,7.2,0.3,12.5,0.3,15.9v84.7h-18.6V428.2z"/>
	<path d="M702.6,428.2h21.9l52.1,143.5h-21.3l-15-43H684l-15.6,43h-19.9L702.6,428.2z M734.8,512.9l-22.1-63.4l-23,63.4H734.8z"/>
	<path d="M889.6,432.3c14.1,7.5,22.6,20.6,25.8,39.4h-19.2c-2.3-10.5-7-18.1-14.2-22.9c-7.2-4.8-16.3-7.2-27.3-7.2
		c-13,0-24,5-32.9,14.9c-8.9,10-13.3,24.8-13.3,44.5c0,17.1,3.7,30.9,11,41.7c7.3,10.7,19.3,16.1,35.9,16.1
		c12.7,0,23.2-3.8,31.5-11.3c8.3-7.5,12.6-19.7,12.8-36.5h-44.9v-16.1h63v76.8h-12.5l-4.7-18.5c-6.5,7.2-12.2,12.2-17.2,15
		c-8.4,4.8-19.1,7.2-32,7.2c-16.7,0-31.1-5.5-43.1-16.5c-13.1-13.8-19.7-32.7-19.7-56.8c0-24,6.4-43.1,19.2-57.3
		c12.2-13.5,28-20.3,47.4-20.3C868.4,424.5,879.9,427.1,889.6,432.3z"/>
	<path d="M951.5,428.2h104.1v17.6h-85.2v43.6h78.7V506h-78.7v48.6h86.6v17.1H951.5V428.2z"/>
</g>
</svg>
